<svg width="48" height="48" viewBox="0 0 48 48" fill="none" xmlns="http://www.w3.org/2000/svg">
<path d="M24 34C29.5228 34 34 29.5228 34 24C34 18.4772 29.5228 14 24 14C18.4772 14 14 18.4772 14 24C14 29.5228 18.4772 34 24 34Z" fill="url(#paint0_linear_4_82)"/>
<path d="M33.398 5.20596L31.048 10.88C30.282 12.728 27.51 11.58 28.276 9.73196L30.626 4.05796C31.392 2.20996 34.164 3.35796 33.398 5.20596ZM19.706 38.26L17.356 43.934C16.59 45.782 13.818 44.634 14.584 42.786L16.934 37.112C17.7 35.264 20.472 36.412 19.706 38.26V38.26ZM43.93 17.362L38.256 19.712C36.408 20.478 35.26 17.706 37.108 16.94L42.782 14.59C44.63 13.824 45.778 16.596 43.93 17.362V17.362ZM10.876 31.054L5.20201 33.404C3.35401 34.17 2.20601 31.398 4.05401 30.632L9.72801 28.282C11.576 27.516 12.724 30.288 10.876 31.054V31.054ZM42.782 33.406L37.108 31.056C35.26 30.29 36.408 27.518 38.256 28.284L43.93 30.634C45.778 31.4 44.63 34.172 42.782 33.406ZM9.72801 19.714L4.05401 17.364C2.20601 16.598 3.35401 13.826 5.20201 14.592L10.876 16.942C12.724 17.708 11.576 20.48 9.72801 19.714V19.714ZM17.354 4.05596L19.704 9.72996C20.47 11.578 17.698 12.726 16.932 10.878L14.582 5.20396C13.816 3.35596 16.588 2.20796 17.354 4.05596V4.05596ZM31.046 37.11L33.396 42.784C34.162 44.632 31.39 45.78 30.624 43.932L28.274 38.258C27.508 36.41 30.28 35.262 31.046 37.11V37.11Z" fill="#FFB300"/>
<defs>
<linearGradient id="paint0_linear_4_82" x1="24" y1="14" x2="24" y2="33.7334" gradientUnits="userSpaceOnUse">
<stop stop-color="#FFC227"/>
<stop offset="1" stop-color="#FFB300"/>
</linearGradient>
</defs>
</svg>
